<svg width="100%" viewBox="0 0 680 680" xmlns="http://www.w3.org/2000/svg">
<circle cx="340" cy="340" r="280" fill="#0B1F3A"/>
<circle cx="340" cy="340" r="300" fill="none" stroke="#0B1F3A" stroke-width="50" stroke-dasharray="24 17"/>
<circle cx="340" cy="340" r="252" fill="#FFFFFF" stroke="#0B1F3A" stroke-width="5"/>

<path id="topArc" d="M 128 320 A 215 215 0 0 1 552 320" fill="none"/>
<text font-size="30" font-weight="700" fill="#B3272C" letter-spacing="1">
  <textPath href="#topArc" startOffset="50%" text-anchor="middle">RSL SHIPBOARD DIVISION</textPath>
</text>

<path d="M180 420 Q260 405 340 420 T500 420" fill="none" stroke="#2E6DA4" stroke-width="6" stroke-linecap="round"/>
<path d="M195 435 Q270 422 345 435 T490 435" fill="none" stroke="#2E6DA4" stroke-width="5" stroke-linecap="round" opacity="0.6"/>

<path d="M210 410 L470 410 L448 448 L232 448 Z" fill="#0B1F3A"/>
<rect x="380" y="368" width="60" height="44" rx="3" fill="#0B1F3A"/>
<rect x="388" y="376" width="14" height="12" fill="#FFFFFF"/>
<rect x="410" y="376" width="14" height="12" fill="#FFFFFF"/>
<rect x="250" y="390" width="34" height="22" fill="#B3272C"/>
<rect x="288" y="390" width="34" height="22" fill="#F5C400"/>
<rect x="326" y="390" width="34" height="22" fill="#2E6DA4"/>
<line x1="405" y1="368" x2="405" y2="330" stroke="#0B1F3A" stroke-width="5"/>
<line x1="405" y1="335" x2="440" y2="335" stroke="#0B1F3A" stroke-width="4"/>

<path d="M150 500 L215 490 L215 560 L150 570 Z" fill="#C9980A"/>
<path d="M530 500 L465 490 L465 560 L530 570 Z" fill="#C9980A"/>
<rect x="205" y="488" width="270" height="72" fill="#F5C400" stroke="#0B1F3A" stroke-width="4"/>
<text x="340" y="537" font-size="42" font-weight="700" fill="#0B1F3A" text-anchor="middle" letter-spacing="2">SHIPBOARD</text>
</svg>
